# Blender v2.76 (sub 0) OBJ File: ''
# www.blender.org
o Cone
v -0.640000 0.000000 4.000000
v -0.490268 0.411384 4.000000
v 0.000000 0.000000 6.000000
v -0.111135 0.630277 4.000000
v 0.320000 0.554256 4.000000
v 0.601403 0.218893 4.000000
v 0.601403 -0.218893 4.000000
v 0.320000 -0.554256 4.000000
v -0.111135 -0.630277 4.000000
v -0.490268 -0.411384 4.000000
v -0.374486 -0.000000 0.000000
v -0.640000 0.000000 4.000000
v -0.286873 0.240715 0.000000
v -0.490268 0.411384 4.000000
v -0.065029 0.368797 0.000000
v -0.111135 0.630277 4.000000
v 0.187243 0.324314 0.000000
v 0.320000 0.554256 4.000000
v 0.351902 0.128082 0.000000
v 0.601403 0.218893 4.000000
v 0.351902 -0.128082 0.000000
v 0.601403 -0.218893 4.000000
v 0.187243 -0.324314 0.000000
v 0.320000 -0.554256 4.000000
v -0.065029 -0.368797 0.000000
v -0.111135 -0.630277 4.000000
v -0.286873 -0.240715 0.000000
v -0.490268 -0.411384 4.000000
vt 0.563869 0.373061
vt 0.500000 1.522463
vt 0.781758 0.373061
vt 0.500000 0.373061
vt 0.736423 0.373061
vt 0.316096 0.373061
vt 0.374202 0.373061
vt 0.181468 0.373061
vt 0.625798 0.373061
vt 0.818532 0.373061
vt 0.263577 0.373061
vt 0.736423 0.654819
vt 0.374202 0.027434
vt 0.137779 0.436930
vt 0.500000 2.671865
vt 0.736423 2.671865
vt 0.781758 2.671865
vt 0.563869 2.671865
vt 0.537372 0.373061
vt 0.316096 2.671865
vt 0.392391 0.373061
vt 0.686384 0.373061
vt 0.818532 2.671865
vt 0.625798 2.671865
vt 0.374202 2.671865
vt 0.426391 0.373061
vt 0.181468 2.671865
vt 0.313616 0.373061
vt 0.500000 0.740869
vt 0.818532 0.189156
vt 0.263577 2.671865
vt 0.664866 0.373061
vt 0.638339 0.537927
vt 0.426391 0.170823
vt 0.288052 0.410433
vt 0.263577 0.654818
vt 0.862221 0.436930
vt 0.625798 0.027434
vt 0.181468 0.189156
vt 0.638339 0.373061
vt 0.573609 0.373061
vt 0.361661 0.373061
vt 0.361661 0.537927
vt 0.500000 0.588278
vt 0.711948 0.410433
vt 0.686384 0.265452
vt 0.573609 0.170823
vt 0.313616 0.265452
vn -0.478800 -0.829300 0.288000
vn -0.899900 0.327500 0.288000
vn 0.166300 -0.943100 0.288000
vn 0.733600 -0.615600 0.288000
vn 0.957600 -0.000000 0.288000
vn 0.733600 0.615600 0.288000
vn 0.166300 0.943100 0.288000
vn -0.899900 -0.327500 0.288000
vn -0.478800 0.829300 0.288000
vn 0.000000 0.000000 -1.000000
vn -0.937900 0.341400 -0.062300
vn -0.499000 0.864300 -0.062300
vn 0.173300 0.982900 -0.062300
vn 0.764600 0.641500 -0.062300
vn 0.998100 -0.000000 -0.062300
vn 0.764600 -0.641500 -0.062300
vn 0.173300 -0.982900 -0.062300
vn 0.000000 0.000000 1.000000
vn -0.937900 -0.341400 -0.062300
vn -0.499000 -0.864300 -0.062300
s off
f 9/1/1 3/2/1 10/3/1
f 1/4/2 3/2/2 2/5/2
f 8/6/3 3/2/3 9/1/3
f 7/7/4 3/2/4 8/8/4
f 6/9/5 3/2/5 7/7/5
f 5/10/6 3/2/6 6/9/6
f 4/1/7 3/2/7 5/6/7
f 10/11/8 3/2/8 1/4/8
f 2/3/9 3/2/9 4/1/9
f 2/12/10 7/13/10 9/14/10
f 11/4/11 12/15/11 14/16/11
f 14/17/12 16/18/12 15/19/12
f 16/18/13 18/20/13 17/21/13
f 17/22/14 18/23/14 20/24/14
f 20/24/15 22/25/15 21/26/15
f 22/25/16 24/27/16 23/28/16
f 24/20/17 26/18/17 25/19/17
f 12/29/18 22/13/18 18/30/18
f 28/31/19 12/15/19 11/4/19
f 26/18/20 28/17/20 27/32/20
f 13/33/10 21/34/10 25/35/10
f 10/36/10 1/29/10 9/14/10
f 2/12/10 4/37/10 5/30/10
f 5/30/10 6/38/10 7/13/10
f 7/13/10 8/39/10 9/14/10
f 9/14/10 1/29/10 2/12/10
f 2/12/10 5/30/10 7/13/10
f 13/40/11 11/4/11 14/16/11
f 13/32/12 14/17/12 15/19/12
f 15/19/13 16/18/13 17/21/13
f 19/41/14 17/22/14 20/24/14
f 19/41/15 20/24/15 21/26/15
f 21/26/16 22/25/16 23/28/16
f 23/21/17 24/20/17 25/19/17
f 16/37/18 14/12/18 12/29/18
f 12/29/18 28/36/18 26/14/18
f 26/14/18 24/39/18 12/29/18
f 22/13/18 20/38/18 18/30/18
f 18/30/18 16/37/18 12/29/18
f 12/29/18 24/39/18 22/13/18
f 27/42/19 28/31/19 11/4/19
f 25/19/20 26/18/20 27/32/20
f 27/43/10 11/44/10 25/35/10
f 13/33/10 15/45/10 17/46/10
f 17/46/10 19/47/10 21/34/10
f 21/34/10 23/48/10 25/35/10
f 25/35/10 11/44/10 13/33/10
f 13/33/10 17/46/10 21/34/10
