# Blender v2.76 (sub 0) OBJ File: ''
# www.blender.org
o Circle.001_Circle.002
v 0.000000 0.000000 1.172899
v 0.068344 0.094069 1.244761
v 0.110584 -0.035930 1.244761
v 0.000000 -0.116275 1.244761
v -0.110584 -0.035930 1.244761
v -0.068344 0.094069 1.244761
v 0.110584 0.035930 1.361038
v 0.068344 -0.094069 1.361038
v -0.068344 -0.094069 1.361038
v -0.110584 0.035930 1.361038
v 0.000000 0.116275 1.361037
v 0.000000 0.000000 1.432899
v 0.064999 -0.021119 1.192314
v 0.040171 0.055292 1.192314
v 0.105172 0.034173 1.234554
v 0.000000 0.110584 1.234554
v -0.040171 0.055292 1.192314
v 0.000000 -0.068345 1.192315
v 0.065000 -0.089465 1.234554
v -0.064999 -0.021119 1.192314
v -0.065000 -0.089465 1.234554
v -0.105172 0.034173 1.234554
v 0.040172 0.123638 1.302899
v -0.040172 0.123638 1.302899
v 0.130000 0.000000 1.302899
v 0.105172 0.076412 1.302899
v 0.040172 -0.123638 1.302899
v 0.105172 -0.076412 1.302899
v -0.105172 -0.076412 1.302899
v -0.040172 -0.123638 1.302899
v -0.105172 0.076412 1.302899
v -0.130000 0.000000 1.302899
v 0.065000 0.089465 1.371245
v 0.105172 -0.034173 1.371245
v 0.000000 -0.110584 1.371245
v -0.105172 -0.034173 1.371245
v -0.065000 0.089465 1.371245
v 0.064999 0.021119 1.413485
v 0.000000 0.068345 1.413484
v 0.040171 -0.055292 1.413485
v -0.040171 -0.055292 1.413485
v -0.064999 0.021119 1.413485
v 0.000000 0.000000 1.382900
v -0.250000 0.000000 1.382900
v -0.245196 -0.048773 1.382900
v -0.230970 -0.095671 1.382900
v -0.207867 -0.138893 1.382900
v -0.176777 -0.176777 1.382900
v -0.138893 -0.207867 1.382900
v -0.095671 -0.230970 1.382900
v -0.048773 -0.245196 1.382900
v -0.000000 -0.250000 1.382900
v 0.048773 -0.245196 1.382900
v 0.095671 -0.230970 1.382900
v 0.138893 -0.207867 1.382900
v 0.176777 -0.176777 1.382900
v 0.207867 -0.138893 1.382900
v 0.230970 -0.095671 1.382900
v 0.245196 -0.048773 1.382900
v 0.250000 0.000000 1.382900
v 0.245196 0.048773 1.382900
v 0.230970 0.095671 1.382900
v 0.207867 0.138893 1.382900
v 0.176777 0.176777 1.382900
v 0.138892 0.207868 1.382900
v 0.095671 0.230970 1.382900
v 0.048772 0.245196 1.382900
v -0.000000 0.250000 1.382900
v -0.048773 0.245196 1.382900
v -0.095671 0.230970 1.382900
v -0.138893 0.207867 1.382900
v -0.176777 0.176776 1.382900
v -0.207868 0.138892 1.382900
v -0.230970 0.095671 1.382900
v -0.245196 0.048772 1.382900
vt 0.704713 0.128228
vt 0.640699 0.174736
vt 0.729164 0.203481
vt 0.997152 0.641416
vt 0.999802 0.710291
vt 0.934926 0.691700
vt 0.783840 0.128228
vt 0.729164 0.052974
vt 0.640699 0.081719
vt 0.934925 0.599916
vt 0.062566 0.637988
vt 0.143245 0.623226
vt 0.106586 0.703740
vt 0.284235 0.629031
vt 0.213370 0.656977
vt 0.278248 0.710627
vt 0.639052 0.574413
vt 0.576684 0.564858
vt 0.594664 0.643383
vt 0.789460 0.568937
vt 0.719731 0.559650
vt 0.771480 0.636946
vt 0.999802 0.561782
vt 0.018178 0.706958
vt 0.358439 0.663491
vt 0.683072 0.640165
vt 0.860723 0.721608
vt 0.789857 0.685185
vt 0.854734 0.647051
vt 0.746312 0.256653
vt 0.808291 0.309429
vt 0.729164 0.309430
vt 0.595805 0.305557
vt 0.665149 0.262920
vt 0.640699 0.338174
vt 0.420666 0.704992
vt 0.358440 0.755275
vt 0.423316 0.773867
vt 0.727092 0.705917
vt 0.646413 0.720680
vt 0.712164 0.767221
vt 0.860721 0.565456
vt 0.789856 0.593401
vt 0.829952 0.513109
vt 0.783840 0.384683
vt 0.729164 0.459936
vt 0.704713 0.384683
vt 0.808291 0.459937
vt 0.746312 0.512713
vt 0.640699 0.431192
vt 0.665149 0.506446
vt 0.595805 0.463809
vt 0.576684 0.384683
vt 0.284237 0.785183
vt 0.343125 0.821002
vt 0.069927 0.784255
vt 0.150606 0.769493
vt 0.135678 0.830796
vt 0.919609 0.517134
vt 0.789460 0.715472
vt 0.576684 0.711392
vt 0.000198 0.774968
vt 0.194994 0.700522
vt 0.212974 0.779047
vt 0.423316 0.625357
vt 0.343123 0.580710
vt 0.213371 0.748761
vt 0.000198 0.628433
vt 0.212974 0.632513
vt 0.665149 0.006465
vt 0.595805 0.049102
vt 0.653980 0.513109
vt 0.808291 0.052974
vt 0.746312 0.000198
vt 0.253466 0.576684
vt 0.808291 0.203481
vt 0.746312 0.256257
vt 0.919611 0.757426
vt 0.576684 0.128228
vt 0.077494 0.576684
vt 0.665149 0.249990
vt 0.595805 0.207354
vt 0.288243 0.288243
vt 0.511982 0.471861
vt 0.471861 0.511982
vt 0.424683 0.543505
vt 0.372262 0.565218
vt 0.316613 0.576288
vt 0.259873 0.576288
vt 0.204223 0.565218
vt 0.151802 0.543505
vt 0.104625 0.511982
vt 0.064504 0.471861
vt 0.032981 0.424683
vt 0.011267 0.372262
vt 0.000198 0.316613
vt 0.000198 0.259873
vt 0.011267 0.204223
vt 0.032981 0.151802
vt 0.064504 0.104625
vt 0.104625 0.064504
vt 0.151803 0.032981
vt 0.204224 0.011267
vt 0.259873 0.000198
vt 0.316613 0.000198
vt 0.372263 0.011268
vt 0.424684 0.032981
vt 0.471861 0.064504
vt 0.511982 0.104625
vt 0.543505 0.151803
vt 0.565219 0.204224
vt 0.576288 0.259874
vt 0.576288 0.316613
vt 0.565218 0.372263
vt 0.543505 0.424684
vn 0.315100 0.102400 -0.943500
vn 0.268000 0.700200 -0.661700
vn 0.194700 -0.268000 -0.943500
vn -0.194700 -0.268000 -0.943500
vn -0.315100 0.102400 -0.943500
vn 0.268000 0.905000 -0.330400
vn 0.943500 0.024700 -0.330400
vn 0.315100 -0.889700 -0.330400
vn -0.748800 -0.574600 -0.330400
vn -0.777900 0.534600 -0.330400
vn 0.583100 0.802600 -0.125600
vn 0.943500 -0.306600 -0.125600
vn 0.000000 -0.992100 -0.125600
vn -0.943500 -0.306600 -0.125600
vn -0.583100 0.802600 -0.125600
vn 0.628400 0.408900 0.661700
vn 0.583100 -0.471300 0.661700
vn -0.268000 -0.700200 0.661700
vn -0.748800 0.038500 0.661700
vn -0.194700 0.724000 0.661700
vn -0.194700 0.268000 0.943500
vn -0.356800 0.491100 0.794700
vn -0.628400 0.408900 0.661700
vn -0.315100 -0.102400 0.943500
vn -0.577300 -0.187600 0.794700
vn -0.583100 -0.471300 0.661700
vn 0.000000 -0.331300 0.943500
vn 0.000000 -0.607100 0.794700
vn 0.268000 -0.700200 0.661700
vn 0.315100 -0.102400 0.943500
vn 0.577300 -0.187600 0.794700
vn 0.748800 0.038500 0.661700
vn 0.194700 0.268000 0.943500
vn 0.356800 0.491100 0.794700
vn 0.194700 0.724000 0.661700
vn -0.315100 0.889700 0.330400
vn -0.577300 0.794700 0.187600
vn -0.748800 0.574600 0.330400
vn -0.943500 -0.024700 0.330400
vn -0.934200 -0.303500 0.187600
vn -0.777900 -0.534600 0.330400
vn -0.268000 -0.905000 0.330400
vn 0.000000 -0.982200 0.187600
vn 0.268000 -0.905000 0.330400
vn 0.777900 -0.534600 0.330400
vn 0.934200 -0.303500 0.187600
vn 0.943500 -0.024700 0.330400
vn 0.748800 0.574600 0.330400
vn 0.577300 0.794700 0.187600
vn 0.315100 0.889700 0.330400
vn -0.943500 0.306600 0.125600
vn -0.934200 0.303500 -0.187600
vn -0.943500 0.024700 -0.330400
vn -0.583100 -0.802600 0.125600
vn -0.577300 -0.794700 -0.187600
vn -0.315100 -0.889700 -0.330400
vn 0.583100 -0.802600 0.125600
vn 0.577300 -0.794700 -0.187600
vn 0.748800 -0.574600 -0.330400
vn 0.943500 0.306600 0.125600
vn 0.934200 0.303500 -0.187600
vn 0.777900 0.534600 -0.330400
vn 0.000000 0.992100 0.125600
vn 0.000000 0.982200 -0.187600
vn -0.268000 0.905000 -0.330400
vn -0.583100 0.471300 -0.661700
vn -0.577300 0.187600 -0.794700
vn -0.748800 -0.038500 -0.661700
vn -0.628400 -0.408900 -0.661700
vn -0.356800 -0.491100 -0.794700
vn -0.194700 -0.724000 -0.661700
vn 0.194700 -0.724000 -0.661700
vn 0.356800 -0.491100 -0.794700
vn 0.628400 -0.408900 -0.661700
vn -0.268000 0.700200 -0.661700
vn 0.000000 0.607100 -0.794700
vn 0.000000 0.331300 -0.943500
vn 0.748800 -0.038500 -0.661700
vn 0.577300 0.187600 -0.794700
vn 0.583100 0.471300 -0.661700
vn 0.000000 0.000000 1.000000
s off
f 1/1/1 14/2/1 13/3/1
f 2/4/2 14/5/2 16/6/2
f 1/1/3 13/3/3 18/7/3
f 1/1/4 18/7/4 20/8/4
f 1/1/5 20/8/5 17/9/5
f 2/4/6 16/6/6 23/10/6
f 3/11/7 15/12/7 25/13/7
f 4/14/8 19/15/8 27/16/8
f 5/17/9 21/18/9 29/19/9
f 6/20/10 22/21/10 31/22/10
f 2/4/11 23/10/11 26/23/11
f 3/11/12 25/13/12 28/24/12
f 4/14/13 27/16/13 30/25/13
f 5/17/14 29/19/14 32/26/14
f 6/27/15 31/28/15 24/29/15
f 7/30/16 33/31/16 38/32/16
f 8/33/17 34/34/17 40/35/17
f 9/36/18 35/37/18 41/38/18
f 10/39/19 36/40/19 42/41/19
f 11/42/20 37/43/20 39/44/20
f 39/45/21 42/46/21 12/47/21
f 39/45/22 37/48/22 42/46/22
f 37/48/23 10/49/23 42/46/23
f 42/46/24 41/50/24 12/47/24
f 42/46/25 36/51/25 41/50/25
f 36/51/26 9/52/26 41/50/26
f 41/50/27 40/35/27 12/47/27
f 41/50/28 35/53/28 40/35/28
f 35/37/29 8/54/29 40/55/29
f 40/35/30 38/32/30 12/47/30
f 40/35/31 34/34/31 38/32/31
f 34/56/32 7/57/32 38/58/32
f 38/32/33 39/45/33 12/47/33
f 38/32/34 33/31/34 39/45/34
f 33/59/35 11/42/35 39/44/35
f 24/29/36 37/43/36 11/42/36
f 24/29/37 31/28/37 37/43/37
f 31/22/38 10/39/38 37/60/38
f 32/26/39 36/40/39 10/39/39
f 32/26/40 29/19/40 36/40/40
f 29/19/41 9/61/41 36/40/41
f 30/25/42 35/37/42 9/36/42
f 30/25/43 27/16/43 35/37/43
f 27/16/44 8/54/44 35/37/44
f 28/24/45 34/56/45 8/62/45
f 28/24/46 25/13/46 34/56/46
f 25/13/47 7/57/47 34/56/47
f 26/63/48 33/64/48 7/57/48
f 26/23/49 23/10/49 33/59/49
f 23/10/50 11/42/50 33/59/50
f 31/22/51 32/26/51 10/39/51
f 31/22/52 22/21/52 32/26/52
f 22/21/53 5/17/53 32/26/53
f 29/65/54 30/25/54 9/36/54
f 29/65/55 21/66/55 30/25/55
f 21/66/56 4/14/56 30/25/56
f 27/16/57 28/67/57 8/54/57
f 27/16/58 19/15/58 28/67/58
f 19/68/59 3/11/59 28/24/59
f 25/13/60 26/63/60 7/57/60
f 25/13/61 15/12/61 26/63/61
f 15/12/62 2/69/62 26/63/62
f 23/10/63 24/29/63 11/42/63
f 23/10/64 16/6/64 24/29/64
f 16/6/65 6/27/65 24/29/65
f 17/9/66 22/70/66 6/71/66
f 17/9/67 20/8/67 22/70/67
f 20/72/68 5/17/68 22/21/68
f 20/8/69 21/73/69 5/74/69
f 20/8/70 18/7/70 21/73/70
f 18/75/71 4/14/71 21/66/71
f 18/75/72 19/15/72 4/14/72
f 18/7/73 13/3/73 19/76/73
f 13/3/74 3/77/74 19/76/74
f 16/6/75 17/78/75 6/27/75
f 16/79/76 14/2/76 17/9/76
f 14/2/77 1/1/77 17/9/77
f 13/80/78 15/12/78 3/11/78
f 13/3/79 14/2/79 15/81/79
f 14/2/80 2/82/80 15/81/80
f 43/83/81 44/84/81 45/85/81
f 43/83/81 45/85/81 46/86/81
f 43/83/81 46/86/81 47/87/81
f 43/83/81 47/87/81 48/88/81
f 43/83/81 48/88/81 49/89/81
f 43/83/81 49/89/81 50/90/81
f 43/83/81 50/90/81 51/91/81
f 43/83/81 51/91/81 52/92/81
f 43/83/81 52/92/81 53/93/81
f 43/83/81 53/93/81 54/94/81
f 43/83/81 54/94/81 55/95/81
f 43/83/81 55/95/81 56/96/81
f 43/83/81 56/96/81 57/97/81
f 43/83/81 57/97/81 58/98/81
f 43/83/81 58/98/81 59/99/81
f 43/83/81 59/99/81 60/100/81
f 43/83/81 60/100/81 61/101/81
f 43/83/81 61/101/81 62/102/81
f 43/83/81 62/102/81 63/103/81
f 43/83/81 63/103/81 64/104/81
f 43/83/81 64/104/81 65/105/81
f 43/83/81 65/105/81 66/106/81
f 43/83/81 66/106/81 67/107/81
f 43/83/81 67/107/81 68/108/81
f 43/83/81 68/108/81 69/109/81
f 43/83/81 69/109/81 70/110/81
f 43/83/81 70/110/81 71/111/81
f 43/83/81 71/111/81 72/112/81
f 43/83/81 72/112/81 73/113/81
f 43/83/81 73/113/81 74/114/81
f 43/83/81 74/114/81 75/115/81
f 43/83/81 75/115/81 44/84/81
