# Blender v2.76 (sub 0) OBJ File: ''
# www.blender.org
o Cylinder
v -0.645000 0.000000 2.910000
v 0.645000 0.000000 2.910000
v -0.645000 0.040000 2.899282
v 0.645000 0.040000 2.899282
v -0.645000 0.069282 2.870000
v 0.645000 0.069282 2.870000
v -0.645000 0.080000 2.830000
v 0.645000 0.080000 2.830000
v -0.645000 0.069282 2.790000
v 0.645000 0.069282 2.790000
v -0.645000 0.040000 2.760718
v 0.645000 0.040000 2.760718
v -0.645000 0.000000 2.750000
v 0.645000 0.000000 2.750000
v -0.645000 -0.040000 2.760718
v 0.645000 -0.040000 2.760718
v -0.645000 -0.069282 2.790000
v 0.645000 -0.069282 2.790000
v -0.645000 -0.080000 2.830000
v 0.645000 -0.080000 2.830000
v -0.645000 -0.069282 2.870000
v 0.645000 -0.069282 2.870000
v -0.645000 -0.040000 2.899282
v 0.645000 -0.040000 2.899282
vt 0.500000 -2.294541
vt 0.338287 -2.294541
vt 0.338287 2.920695
vt 0.219905 -2.294541
vt 0.500000 2.920695
vt 0.661713 -2.294541
vt 0.661713 2.920695
vt 0.780095 -2.294541
vt 0.780095 2.920695
vt 0.780095 3.506904
vt 0.500000 3.992042
vt 0.500000 3.345191
vt 0.219905 2.920695
vt 0.176574 3.668617
vt 0.661713 3.948711
vt 0.661713 3.388521
vt 0.219905 3.506904
vt 0.338287 3.388521
vt 0.823426 3.668617
vt 0.780095 3.830329
vt 0.338287 3.948711
vt 0.219905 3.830329
vn 0.000000 0.258800 0.965900
vn 0.000000 0.707100 0.707100
vn 0.000000 0.965900 0.258800
vn 0.000000 0.965900 -0.258800
vn 0.000000 0.707100 -0.707100
vn 0.000000 0.258800 -0.965900
vn 0.000000 -0.258800 -0.965900
vn 0.000000 -0.707100 -0.707100
vn 0.000000 -0.965900 -0.258800
vn 0.000000 -0.965900 0.258800
vn 1.000000 0.000000 0.000000
vn 0.000000 -0.258800 0.965900
vn 0.000000 -0.707100 0.707100
vn -1.000000 0.000000 0.000000
s off
f 2/1/1 4/2/1 3/3/1
f 4/4/2 6/2/2 5/3/2
f 6/2/3 8/1/3 7/5/3
f 8/1/4 10/6/4 9/7/4
f 10/4/5 12/2/5 11/3/5
f 12/2/6 14/1/6 13/5/6
f 14/1/7 16/6/7 15/7/7
f 16/6/8 18/8/8 17/9/8
f 18/6/9 20/1/9 19/5/9
f 20/1/10 22/2/10 21/3/10
f 22/10/11 14/11/11 2/12/11
f 24/6/12 2/1/12 1/5/12
f 22/2/13 24/4/13 23/13/13
f 7/14/14 15/15/14 23/16/14
f 1/5/1 2/1/1 3/3/1
f 3/13/2 4/4/2 5/3/2
f 5/3/3 6/2/3 7/5/3
f 7/5/4 8/1/4 9/7/4
f 9/13/5 10/4/5 11/3/5
f 11/3/6 12/2/6 13/5/6
f 13/5/7 14/1/7 15/7/7
f 15/7/8 16/6/8 17/9/8
f 17/7/9 18/6/9 19/5/9
f 19/5/10 20/1/10 21/3/10
f 6/17/11 4/18/11 2/12/11
f 2/12/11 24/16/11 22/10/11
f 22/10/11 20/19/11 18/20/11
f 18/20/11 16/15/11 14/11/11
f 14/11/11 12/21/11 10/22/11
f 10/22/11 8/14/11 6/17/11
f 6/17/11 2/12/11 14/11/11
f 22/10/11 18/20/11 14/11/11
f 14/11/11 10/22/11 6/17/11
f 23/7/12 24/6/12 1/5/12
f 21/3/13 22/2/13 23/13/13
f 23/16/14 1/12/14 7/14/14
f 3/18/14 5/17/14 7/14/14
f 7/14/14 9/22/14 11/21/14
f 11/21/14 13/11/14 7/14/14
f 15/15/14 17/20/14 23/16/14
f 19/19/14 21/10/14 23/16/14
f 1/12/14 3/18/14 7/14/14
f 7/14/14 13/11/14 15/15/14
f 17/20/14 19/19/14 23/16/14
