# Blender v2.76 (sub 0) OBJ File: ''
# www.blender.org
o Torus.002
v 0.169317 58.367092 0.875131
v -17.877226 55.508808 0.875131
v -6.002957 18.963516 0.875131
v 0.169305 19.941101 0.875131
v -5.441380 17.235153 -0.000000
v -34.157265 47.213726 0.875131
v -11.571038 16.126436 0.875131
v -10.502857 14.656209 -0.000000
v -47.077171 34.293819 0.875131
v -15.989891 11.707582 0.875131
v -14.519663 10.639396 -0.000000
v -55.372253 18.013815 0.875131
v -18.826969 6.139514 0.875131
v -17.098616 5.577934 -0.000000
v -58.230556 -0.032734 0.875131
v -19.804564 -0.032752 0.875131
v -17.987261 -0.032752 -0.000000
v -55.372269 -18.079288 0.875131
v -18.826977 -6.205016 0.875131
v -17.098616 -5.643439 -0.000000
v -47.077183 -34.359322 0.875131
v -15.989897 -11.773096 0.875131
v -14.519668 -10.704918 0.000002
v -34.157276 -47.279228 0.875129
v -11.571043 -16.191952 0.875131
v -10.502862 -14.721720 -0.000000
v -17.877270 -55.574310 0.875131
v -6.002972 -19.029022 0.875131
v -5.441395 -17.300676 -0.000000
v 0.169273 -58.432610 0.875131
v 0.169290 -20.006617 0.875131
v 0.169290 -18.189316 -0.000000
v 18.215803 -55.574326 0.875129
v 6.341544 -19.029034 0.875131
v 5.779968 -17.300678 -0.000000
v 34.495834 -47.279243 0.875129
v 11.909628 -16.191959 0.875131
v 10.841444 -14.721728 -0.000000
v 47.415752 -34.359352 0.875131
v 16.328484 -11.773108 0.875131
v 14.858254 -10.704927 0.000002
v 55.710850 -18.079327 0.875131
v 19.165562 -6.205029 0.875131
v 17.437212 -5.643451 -0.000000
v 58.569149 -0.032772 0.875131
v 20.143160 -0.032765 0.875131
v 18.325855 -0.032764 -0.000000
v 55.710865 18.013777 0.875131
v 19.165569 6.139501 0.875131
v 17.437212 5.577924 -0.000000
v 47.415798 34.293766 0.875133
v 16.328501 11.707564 0.875133
v 14.858273 10.639381 0.000002
v 34.495903 47.213684 0.875131
v 11.909653 16.126423 0.875131
v 10.841465 14.656196 -0.000000
v 18.215883 55.508785 0.875131
v 6.341572 18.963503 0.875131
v 5.779994 17.235149 -0.000000
v 0.169304 18.123795 -0.000000
vt -4.263652 9.772331
vt -6.887683 7.852272
vt -2.031520 3.020050
vt -1.136816 3.678224
vt -1.639444 2.630901
vt -8.792175 5.218114
vt -2.683380 2.120598
vt -2.187873 1.868707
vt -9.794825 2.125147
vt -3.027069 1.059256
vt -2.473586 0.971665
vt -9.794825 -1.124642
vt -3.025824 -0.054603
vt -2.478428 0.030359
vt -8.796256 -4.214758
vt -2.687541 -1.113512
vt -2.191262 -0.864064
vt -6.892281 -6.854421
vt -2.036184 -2.015962
vt -1.641172 -1.624672
vt -4.260972 -8.780075
vt -1.136653 -2.672935
vt -0.881939 -2.177509
vt -1.156591 -9.796702
vt -0.076003 -3.020431
vt 0.012109 -2.467424
vt 2.112210 -9.801682
vt 1.039661 -3.018435
vt 0.953274 -2.470346
vt 5.218844 -8.794403
vt 2.101446 -2.676064
vt 1.846885 -2.176921
vt 7.861171 -6.875788
vt 3.002325 -2.017354
vt 2.610373 -1.625618
vt 9.782466 -4.234054
vt 3.657526 -1.116433
vt 3.161140 -0.863036
vt 10.794127 -1.125038
vt 4.001991 -0.054211
vt 3.450120 0.033491
vt 10.790540 2.149153
vt 4.001980 1.065084
vt 3.446778 0.976676
vt 9.772987 5.260603
vt 3.654203 2.128625
vt 3.157111 1.873779
vt 7.842626 7.898399
vt 2.996909 3.030780
vt 2.604043 2.635551
vt 5.194267 9.806601
vt 2.094294 3.684525
vt 1.843310 3.188354
vt 2.089612 10.801682
vt 1.036228 4.025777
vt 0.950544 3.479008
vt -1.168421 10.790669
vt -0.078226 4.027459
vt 0.010464 3.475456
vt -0.881888 3.184330
vn 0.000000 0.000000 1.000000
vn 0.068600 -0.432800 0.898900
vn 0.199000 -0.390500 0.898900
vn 0.309900 -0.309900 0.898900
vn 0.390500 -0.199000 0.898900
vn 0.432800 -0.068600 0.898900
vn 0.432800 0.068600 0.898900
vn 0.390500 0.199000 0.898900
vn 0.309900 0.309900 0.898900
vn 0.199000 0.390500 0.898900
vn 0.068600 0.432800 0.898900
vn -0.068600 0.432800 0.898900
vn -0.199000 0.390500 0.898900
vn -0.309900 0.309900 0.898900
vn -0.390500 0.199000 0.898900
vn -0.432800 0.068600 0.898900
vn -0.432800 -0.068600 0.898900
vn -0.390500 -0.199000 0.898900
vn -0.309900 -0.309900 0.898900
vn -0.199000 -0.390500 0.898900
vn -0.068600 -0.432800 0.898900
vn 0.068600 0.432900 0.898900
vn -0.432900 0.068600 0.898900
vn -0.068600 -0.432900 0.898900
s 1
f 1/1/1 2/2/1 3/3/1
f 4/4/2 3/3/2 5/5/2
f 6/6/1 7/7/1 3/3/1
f 7/7/3 8/8/3 5/5/3
f 9/9/1 10/10/1 7/7/1
f 10/10/4 11/11/4 8/8/4
f 12/12/1 13/13/1 10/10/1
f 10/10/5 13/13/5 14/14/5
f 15/15/1 16/16/1 13/13/1
f 16/16/6 17/17/6 14/14/6
f 15/15/1 18/18/1 19/19/1
f 19/19/7 20/20/7 17/17/7
f 18/18/1 21/21/1 22/22/1
f 22/22/8 23/23/8 20/20/8
f 21/21/1 24/24/1 25/25/1
f 25/25/9 26/26/9 23/23/9
f 27/27/1 28/28/1 25/25/1
f 25/25/10 28/28/10 29/29/10
f 30/30/1 31/31/1 28/28/1
f 31/31/11 32/32/11 29/29/11
f 30/30/1 33/33/1 34/34/1
f 31/31/12 34/34/12 35/35/12
f 36/36/1 37/37/1 34/34/1
f 37/37/13 38/38/13 35/35/13
f 36/36/1 39/39/1 40/40/1
f 40/40/14 41/41/14 38/38/14
f 39/39/1 42/42/1 43/43/1
f 43/43/15 44/44/15 41/41/15
f 45/45/1 46/46/1 43/43/1
f 43/43/16 46/46/16 47/47/16
f 48/48/1 49/49/1 46/46/1
f 46/46/17 49/49/17 50/50/17
f 51/51/1 52/52/1 49/49/1
f 49/49/18 52/52/18 53/53/18
f 54/54/1 55/55/1 52/52/1
f 52/52/19 55/55/19 56/56/19
f 57/57/1 58/58/1 55/55/1
f 58/58/20 59/59/20 56/56/20
f 1/1/1 4/4/1 58/58/1
f 58/58/21 4/4/21 60/60/21
f 4/4/1 1/1/1 3/3/1
f 60/60/2 4/4/2 5/5/2
f 2/2/1 6/6/1 3/3/1
f 3/3/3 7/7/3 5/5/3
f 6/6/1 9/9/1 7/7/1
f 7/7/4 10/10/4 8/8/4
f 9/9/1 12/12/1 10/10/1
f 11/11/5 10/10/5 14/14/5
f 12/12/1 15/15/1 13/13/1
f 13/13/6 16/16/6 14/14/6
f 16/16/1 15/15/1 19/19/1
f 16/16/7 19/19/7 17/17/7
f 19/19/1 18/18/1 22/22/1
f 19/19/8 22/22/8 20/20/8
f 22/22/1 21/21/1 25/25/1
f 22/22/9 25/25/9 23/23/9
f 24/24/1 27/27/1 25/25/1
f 26/26/10 25/25/10 29/29/10
f 27/27/1 30/30/1 28/28/1
f 28/28/22 31/31/22 29/29/22
f 31/31/1 30/30/1 34/34/1
f 32/32/12 31/31/12 35/35/12
f 33/33/1 36/36/1 34/34/1
f 34/34/13 37/37/13 35/35/13
f 37/37/1 36/36/1 40/40/1
f 37/37/14 40/40/14 38/38/14
f 40/40/1 39/39/1 43/43/1
f 40/40/15 43/43/15 41/41/15
f 42/42/1 45/45/1 43/43/1
f 44/44/23 43/43/16 47/47/16
f 45/45/1 48/48/1 46/46/1
f 47/47/17 46/46/17 50/50/17
f 48/48/1 51/51/1 49/49/1
f 50/50/18 49/49/18 53/53/18
f 51/51/1 54/54/1 52/52/1
f 53/53/19 52/52/19 56/56/19
f 54/54/1 57/57/1 55/55/1
f 55/55/20 58/58/20 56/56/20
f 57/57/1 1/1/1 58/58/1
f 59/59/24 58/58/21 60/60/21
